<svg xmlns="http://www.w3.org/2000/svg" width="273.552" height="29.701" viewBox="0 0 273.552 29.701">
  <g id="Logo-Red_Hat-Supported_By-A-Reverse-RGB" transform="translate(-2 -2)">
    <path id="Path_19576" data-name="Path 19576" d="M952.14,37.81h7.552a5.08,5.08,0,0,1,5.214,5.02,4.763,4.763,0,0,1-2.813,4.306l3.3,5.82h-4.164l-2.836-5.3h-2.531v5.3H952.14Zm3.723,3.18v3.593h3.4a1.818,1.818,0,0,0,1.883-1.753,1.856,1.856,0,0,0-1.883-1.84Z" transform="translate(-754.184 -28.425)" fill="#fff"/>
    <path id="Path_19577" data-name="Path 19577" d="M1021.02,66.663a6.008,6.008,0,0,1-6.231-5.929,5.878,5.878,0,0,1,5.981-5.927c3.331,0,5.775,2.617,5.775,6.167v.951h-8.165a2.957,2.957,0,0,0,2.811,1.819,3.1,3.1,0,0,0,2.3-.866l2.314,2.062A6.9,6.9,0,0,1,1021.02,66.663Zm-2.661-7.183h4.76a2.557,2.557,0,0,0-2.4-1.8,2.385,2.385,0,0,0-2.362,1.8Z" transform="translate(-803.912 -41.915)" fill="#fff"/>
    <path id="Path_19578" data-name="Path 19578" d="M1085.489,47.953a5.176,5.176,0,0,1-3.073,1.017,5.9,5.9,0,1,1,3.03-11.013V33.651l3.506-1.081V48.8h-3.463Zm-2.51-1.97a3.477,3.477,0,0,0,2.475-.907v-4a3.694,3.694,0,0,0-2.475-.887,2.9,2.9,0,1,0,0,5.8Z" transform="translate(-852.954 -24.265)" fill="#fff"/>
    <path id="Path_19579" data-name="Path 19579" d="M1169.751,47.027h-5.8v5.929h-3.712V37.81h3.712v5.814h5.8V37.81h3.713V52.956h-3.713Z" transform="translate(-919.365 -28.425)" fill="#fff"/>
    <path id="Path_19580" data-name="Path 19580" d="M1235.766,65.686a5.141,5.141,0,0,1-3.073.889c-2.553,0-4.263-1.6-4.263-3.657,0-2.013,1.623-3.529,4.457-3.529a6.135,6.135,0,0,1,2.888.65v-.693c0-1.1-.736-1.664-2.164-1.664a8.768,8.768,0,0,0-3.44.825l-1.031-2.617a12,12,0,0,1,4.717-1.169c3.506,0,5.43,1.536,5.43,4.331v7.334h-3.506Zm-2.143-1.557a4.031,4.031,0,0,0,2.143-.584v-1.19a4.552,4.552,0,0,0-2.25-.606c-1.083,0-1.753.454-1.753,1.169-.008.757.7,1.211,1.852,1.211Z" transform="translate(-973.492 -41.847)" fill="#fff"/>
    <path id="Path_19581" data-name="Path 19581" d="M1290.266,53.129c-2.4,0-3.743-1.147-3.743-3.527v-5.17H1284.1V41.51h2.423V38.893l3.506-1.083v3.7h3.2v2.922h-3.2V48.8c0,.973.52,1.341,1.58,1.341a3.787,3.787,0,0,0,1.536-.346l-.477,2.836A6.1,6.1,0,0,1,1290.266,53.129Z" transform="translate(-1017.68 -28.425)" fill="#fff"/>
    <path id="Path_19582" data-name="Path 19582" d="M752.11,19.118c2.578,0,6.313-.532,6.313-3.6a3,3,0,0,0-.064-.705l-1.536-6.674c-.355-1.47-.668-2.137-3.242-3.426-2-1.023-6.362-2.712-7.651-2.712-1.2,0-1.555,1.555-2.978,1.555-1.378,0-2.4-1.155-3.69-1.155-1.237,0-2.046.846-2.669,2.578,0,0-1.732,4.892-1.955,5.6a1.258,1.258,0,0,0-.045.4C734.592,12.881,742.076,19.118,752.11,19.118Zm6.713-2.355a10.321,10.321,0,0,1,.355,2.089c0,2.887-3.244,4.49-7.513,4.49-9.648,0-18.089-5.647-18.089-9.38a3.81,3.81,0,0,1,.311-1.512c-3.467.177-7.957.8-7.957,4.756,0,6.492,15.381,14.495,27.564,14.495,9.337,0,11.692-4.224,11.692-7.559-.006-2.625-2.273-5.6-6.362-7.381Z" transform="translate(-574.627 0)" fill="#e00"/>
    <path id="Path_19583" data-name="Path 19583" d="M788.248,49.789a10.318,10.318,0,0,1,.355,2.089c0,2.887-3.244,4.49-7.513,4.49-9.648,0-18.089-5.645-18.089-9.378a3.812,3.812,0,0,1,.311-1.512l.757-1.869a1.261,1.261,0,0,0-.045.4c0,1.9,7.484,8.136,17.518,8.136,2.578,0,6.313-.532,6.313-3.6a3,3,0,0,0-.064-.705Z" transform="translate(-604.052 -33.028)"/>
    <path id="Path_19584" data-name="Path 19584" d="M3.4,47.26a7.306,7.306,0,0,0,5.284,2.413c2.238,0,3.729-1.054,3.729-2.566,0-1.338-.825-2.04-3.114-2.413l-2.559-.417c-2.856-.483-4.195-1.819-4.195-3.991,0-2.652,2.215-4.407,5.657-4.407a10.4,10.4,0,0,1,6.187,2.083l-1.27,1.755A8.2,8.2,0,0,0,8.1,37.831c-2,0-3.333.922-3.333,2.281,0,1.237.767,1.842,2.741,2.172l2.475.394c3.267.526,4.713,1.889,4.713,4.255,0,2.807-2.454,4.715-6.117,4.715A9.25,9.25,0,0,1,2,48.883Z" transform="translate(0 -26.893)" fill="#fff"/>
    <path id="Path_19585" data-name="Path 19585" d="M74.658,63.785a2.6,2.6,0,0,0,2.784,2.83,3.143,3.143,0,0,0,2.741-1.444V57.14h2.192V68.3H80.187V67.184a4.564,4.564,0,0,1-3.356,1.339,4.161,4.161,0,0,1-4.341-4.364V57.146h2.168Z" transform="translate(-55.952 -43.768)" fill="#fff"/>
    <path id="Path_19586" data-name="Path 19586" d="M132.77,56.433h2.172v1.054a5.267,5.267,0,0,1,3.419-1.237A5.761,5.761,0,0,1,138.3,67.77a5.536,5.536,0,0,1-3.335-1.1v5.459H132.77Zm2.192,3.048v5.088a4.158,4.158,0,0,0,3.094,1.293,3.849,3.849,0,0,0,0-7.7A3.983,3.983,0,0,0,134.962,59.481Z" transform="translate(-103.8 -43.061)" fill="#fff"/>
    <path id="Path_19587" data-name="Path 19587" d="M197.2,56.433h2.172v1.054a5.267,5.267,0,0,1,3.419-1.237,5.761,5.761,0,0,1-.066,11.521,5.525,5.525,0,0,1-3.333-1.1v5.459H197.2Zm2.192,3.048v5.088a4.15,4.15,0,0,0,3.094,1.293,3.849,3.849,0,0,0,0-7.7A3.983,3.983,0,0,0,199.392,59.481Z" transform="translate(-154.942 -43.061)" fill="#fff"/>
    <path id="Path_19588" data-name="Path 19588" d="M265.1,56.078a5.8,5.8,0,1,1-5.81,5.789,5.727,5.727,0,0,1,5.81-5.789Zm0,1.93a3.879,3.879,0,1,0,3.663,3.865A3.728,3.728,0,0,0,265.1,58.008Z" transform="translate(-204.225 -42.924)" fill="#fff"/>
    <path id="Path_19589" data-name="Path 19589" d="M325.52,56.229h2.194v1.382a3.576,3.576,0,0,1,3.048-1.617,3.139,3.139,0,0,1,1.138.175v1.97a3.9,3.9,0,0,0-1.314-.241,3,3,0,0,0-2.873,2.017v7.476H325.52Z" transform="translate(-256.797 -42.857)" fill="#fff"/>
    <path id="Path_19590" data-name="Path 19590" d="M364.148,45.99H361.78V44.146h2.368V41.3l2.172-.526v3.376h3.289V45.99h-3.289v6.051c0,1.141.46,1.557,1.65,1.557a4.224,4.224,0,0,0,1.6-.264v1.844a7.558,7.558,0,0,1-2.083.328c-2.17,0-3.333-1.031-3.333-2.96Z" transform="translate(-285.579 -30.774)" fill="#fff"/>
    <path id="Path_19591" data-name="Path 19591" d="M409.589,56.29a5.528,5.528,0,0,1,5.393,5.835v.635h-8.815a3.764,3.764,0,0,0,3.772,3.2,4.352,4.352,0,0,0,2.83-.986l1.4,1.382a6.585,6.585,0,0,1-4.321,1.468A5.741,5.741,0,0,1,404,62.036,5.607,5.607,0,0,1,409.589,56.29Zm-3.4,4.826h6.622a3.329,3.329,0,0,0-6.622,0Z" transform="translate(-319.092 -43.093)" fill="#fff"/>
    <path id="Path_19592" data-name="Path 19592" d="M474.146,49.279a5.265,5.265,0,0,1-3.42,1.237,5.762,5.762,0,0,1,.05-11.523,5.587,5.587,0,0,1,3.353,1.1V34.983l2.194-.483V50.331h-2.178Zm-3.114-.681a3.991,3.991,0,0,0,3.094-1.336V42.2a4.166,4.166,0,0,0-3.094-1.316,3.737,3.737,0,0,0-3.793,3.836,3.783,3.783,0,0,0,3.8,3.881Z" transform="translate(-367.583 -25.797)" fill="#fff"/>
    <path id="Path_19593" data-name="Path 19593" d="M559.635,50.506a5.465,5.465,0,0,1-3.355-1.118v.943h-2.17V34.983L556.3,34.5v5.7a5.193,5.193,0,0,1,3.4-1.206,5.757,5.757,0,0,1-.066,11.512ZM556.3,42.217v5.088A4.149,4.149,0,0,0,559.4,48.6a3.849,3.849,0,0,0,0-7.7A3.983,3.983,0,0,0,556.3,42.217Z" transform="translate(-438.243 -25.797)" fill="#fff"/>
    <path id="Path_19594" data-name="Path 19594" d="M615.013,68.324,610.56,57.14h2.413l3.267,8.53,3.6-8.53H622.2l-5.329,12.374c-1.008,2.3-2.149,3.333-4.275,3.333a4.726,4.726,0,0,1-1.163-.109v-1.93a3.653,3.653,0,0,0,.965.089,2.3,2.3,0,0,0,2.215-1.65Z" transform="translate(-483.051 -43.768)" fill="#fff"/>
  </g>
</svg>
